<svg width="214" height="39" viewBox="0 0 214 39" fill="none" xmlns="http://www.w3.org/2000/svg">
<path d="M2.04219 25.11C2.04219 23.97 2.31219 21.96 2.85219 19.08C3.39219 16.2 3.72219 14.38 3.84219 13.62L2.25219 10.41C4.79219 8.97 6.95219 8.25 8.73219 8.25C9.61219 8.25 10.2722 8.55 10.7122 9.15C12.3722 8.57 13.9022 8.28 15.3022 8.28C17.9022 8.28 19.9222 9.13 21.3622 10.83C22.8022 12.51 23.5222 14.61 23.5222 17.13C23.5222 20.45 22.3022 23.5 19.8622 26.28C18.6822 27.62 17.1222 28.7 15.1822 29.52C13.2622 30.34 11.2022 30.75 9.00219 30.75C6.80219 30.75 5.09219 30.27 3.87219 29.31C2.65219 28.33 2.04219 26.93 2.04219 25.11ZM8.40219 26.25C8.82219 26.33 9.29219 26.37 9.81219 26.37C11.9922 26.37 13.6922 25.59 14.9122 24.03C16.1322 22.45 16.7422 20.51 16.7422 18.21C16.7422 16.35 16.3222 14.87 15.4822 13.77C14.6422 12.67 13.4322 12.12 11.8522 12.12C11.6122 12.12 11.2122 12.16 10.6522 12.24C10.5122 13.26 10.1422 15.54 9.54219 19.08C8.96219 22.6 8.58219 24.99 8.40219 26.25ZM30.2232 30.75C28.4632 30.75 27.2332 30.32 26.5332 29.46C25.8332 28.6 25.4832 27.52 25.4832 26.22C25.4832 24.9 25.7032 23.1 26.1432 20.82C26.5832 18.54 26.8032 16.89 26.8032 15.87C26.8032 14.85 26.5932 14.05 26.1732 13.47C28.0332 12.49 29.6032 12 30.8832 12C31.7032 12 32.2932 12.17 32.6532 12.51C33.0332 12.83 33.2232 13.36 33.2232 14.1C33.2232 14.84 32.9132 16.66 32.2932 19.56C31.6932 22.44 31.3932 24.22 31.3932 24.9C31.3932 25.58 31.5832 26.12 31.9632 26.52C32.3432 26.9 32.8432 27.09 33.4632 27.09C34.0832 27.09 34.7432 26.85 35.4432 26.37C36.1432 25.87 36.7132 25.17 37.1532 24.27C37.4332 22.65 37.9832 20.09 38.8032 16.59L37.0032 14.19C39.0232 12.73 40.9432 12 42.7632 12C43.6632 12 44.3032 12.17 44.6832 12.51C45.0832 12.83 45.2832 13.33 45.2832 14.01C45.2832 14.67 44.9132 16.58 44.1732 19.74C43.4532 22.9 43.0932 25.15 43.0932 26.49C43.0932 27.81 43.4032 28.74 44.0232 29.28C42.9032 30.26 41.7232 30.75 40.4832 30.75C39.2632 30.75 38.3832 30.48 37.8432 29.94C37.3032 29.4 37.0332 28.69 37.0332 27.81L36.7332 27.66C36.0732 28.62 35.1532 29.38 33.9732 29.94C32.8132 30.48 31.5632 30.75 30.2232 30.75ZM67.2334 17.34L67.5334 17.49C69.6734 13.83 72.2934 12 75.3934 12C77.8134 12 79.0234 13.21 79.0234 15.63C79.0234 16.67 78.7234 18.43 78.1234 20.91C77.5434 23.39 77.2534 25.26 77.2534 26.52C77.2534 27.78 77.4634 28.7 77.8834 29.28C76.8234 30.26 75.7034 30.75 74.5234 30.75C72.2234 30.75 71.0734 29.51 71.0734 27.03C71.0734 26.11 71.3734 24.55 71.9734 22.35C72.5734 20.15 72.8734 18.72 72.8734 18.06C72.8734 17.16 72.5334 16.71 71.8534 16.71C71.2934 16.71 70.6634 16.96 69.9634 17.46C69.2834 17.94 68.6234 18.6 67.9834 19.44C67.3634 20.26 66.8334 21.31 66.3934 22.59C65.9734 23.85 65.7634 25.14 65.7634 26.46C65.7634 27.76 65.9734 28.7 66.3934 29.28C65.3334 30.26 64.2134 30.75 63.0334 30.75C60.7334 30.75 59.5834 29.51 59.5834 27.03C59.5834 26.11 59.8834 24.55 60.4834 22.35C61.0834 20.15 61.3834 18.72 61.3834 18.06C61.3834 17.16 61.0434 16.71 60.3634 16.71C59.8034 16.71 59.1734 16.96 58.4734 17.46C57.7934 17.94 57.1334 18.6 56.4934 19.44C55.8734 20.26 55.3434 21.31 54.9034 22.59C54.4834 23.85 54.2734 25.14 54.2734 26.46C54.2734 27.76 54.4834 28.7 54.9034 29.28C53.8434 30.26 52.7234 30.75 51.5434 30.75C49.2434 30.75 48.0934 29.51 48.0934 27.03C48.0934 26.23 48.2934 24.68 48.6934 22.38C49.1134 20.08 49.5434 17.98 49.9834 16.08L48.4234 13.68C50.4034 12.56 52.2334 12 53.9134 12C55.5934 12 56.4334 12.76 56.4334 14.28C56.4334 15.28 56.2034 16.3 55.7434 17.34L56.0434 17.49C58.1834 13.83 60.8034 12 63.9034 12C65.0234 12 65.9034 12.28 66.5434 12.84C67.2034 13.4 67.5334 14.24 67.5334 15.36C67.5334 15.96 67.4334 16.62 67.2334 17.34ZM101.159 17.34L101.459 17.49C103.599 13.83 106.219 12 109.319 12C111.739 12 112.949 13.21 112.949 15.63C112.949 16.67 112.649 18.43 112.049 20.91C111.469 23.39 111.179 25.26 111.179 26.52C111.179 27.78 111.389 28.7 111.809 29.28C110.749 30.26 109.629 30.75 108.449 30.75C106.149 30.75 104.999 29.51 104.999 27.03C104.999 26.11 105.299 24.55 105.899 22.35C106.499 20.15 106.799 18.72 106.799 18.06C106.799 17.16 106.459 16.71 105.779 16.71C105.219 16.71 104.589 16.96 103.889 17.46C103.209 17.94 102.549 18.6 101.909 19.44C101.289 20.26 100.759 21.31 100.319 22.59C99.8991 23.85 99.6891 25.14 99.6891 26.46C99.6891 27.76 99.8991 28.7 100.319 29.28C99.2591 30.26 98.1391 30.75 96.9591 30.75C94.6591 30.75 93.5091 29.51 93.5091 27.03C93.5091 26.11 93.8091 24.55 94.4091 22.35C95.0091 20.15 95.3091 18.72 95.3091 18.06C95.3091 17.16 94.9691 16.71 94.2891 16.71C93.7291 16.71 93.0991 16.96 92.3991 17.46C91.7191 17.94 91.0591 18.6 90.4191 19.44C89.7991 20.26 89.2691 21.31 88.8291 22.59C88.4091 23.85 88.1991 25.14 88.1991 26.46C88.1991 27.76 88.4091 28.7 88.8291 29.28C87.7691 30.26 86.6491 30.75 85.4691 30.75C83.1691 30.75 82.0191 29.51 82.0191 27.03C82.0191 26.23 82.2191 24.68 82.6191 22.38C83.0391 20.08 83.4691 17.98 83.9091 16.08L82.3491 13.68C84.3291 12.56 86.1591 12 87.8391 12C89.5191 12 90.3591 12.76 90.3591 14.28C90.3591 15.28 90.1291 16.3 89.6691 17.34L89.9691 17.49C92.1091 13.83 94.7291 12 97.8291 12C98.9491 12 99.8291 12.28 100.469 12.84C101.129 13.4 101.459 14.24 101.459 15.36C101.459 15.96 101.359 16.62 101.159 17.34ZM124.255 29.4C123.315 29.74 122.375 29.91 121.435 29.91C120.495 29.91 119.705 29.63 119.065 29.07C118.425 28.51 118.055 27.75 117.955 26.79C117.855 25.83 117.765 24.44 117.685 22.62C117.605 20.78 117.525 19.48 117.445 18.72C117.185 16.18 116.385 14.37 115.045 13.29C115.985 12.43 117.165 12 118.585 12C119.365 12 120.045 12.21 120.625 12.63C121.205 13.03 121.665 13.57 122.005 14.25C122.365 14.91 122.655 15.77 122.875 16.83C123.215 18.59 123.385 20.97 123.385 23.97C123.385 24.71 123.355 25.58 123.295 26.58H125.035C127.095 21.02 128.125 17.23 128.125 15.21C128.125 14.53 127.975 13.89 127.675 13.29C129.075 12.43 130.295 12 131.335 12C133.275 12 134.245 13.12 134.245 15.36C134.245 17.14 133.425 20.27 131.785 24.75C131.485 25.57 131.315 26.05 131.275 26.19C128.735 33.43 125.125 37.05 120.445 37.05C119.025 37.05 117.855 36.74 116.935 36.12C116.015 35.52 115.555 34.72 115.555 33.72C115.555 32.74 115.925 31.71 116.665 30.63C117.625 31.99 118.825 32.67 120.265 32.67C121.085 32.67 121.845 32.4 122.545 31.86C123.265 31.32 123.835 30.5 124.255 29.4ZM146.158 19.17C146.018 18.61 145.948 18.09 145.948 17.61C145.948 16.63 146.238 15.89 146.818 15.39C147.398 14.89 148.148 14.64 149.068 14.64C149.068 13.6 148.798 12.47 148.258 11.25C149.238 10.53 150.128 9.99 150.928 9.63C151.748 9.25 152.608 9.06 153.508 9.06C154.408 9.06 155.028 9.23 155.368 9.57C155.728 9.89 155.908 10.39 155.908 11.07C155.908 11.75 155.768 12.81 155.488 14.25C156.288 14.13 157.098 13.96 157.918 13.74C158.058 14.16 158.128 14.7 158.128 15.36C158.128 16.02 157.868 16.64 157.348 17.22C156.848 17.78 156.108 18.06 155.128 18.06H154.678C153.958 21.32 153.598 23.83 153.598 25.59C153.598 27.35 153.908 28.58 154.528 29.28C153.408 30.26 152.218 30.75 150.958 30.75C149.698 30.75 148.788 30.38 148.228 29.64C147.688 28.88 147.418 27.71 147.418 26.13C147.418 25.17 147.768 22.65 148.468 18.57C147.668 18.71 146.898 18.91 146.158 19.17ZM171.226 26.31L170.926 26.16C170.386 27.6 169.606 28.73 168.586 29.55C167.586 30.35 166.466 30.75 165.226 30.75C163.526 30.75 162.166 30.11 161.146 28.83C160.126 27.55 159.616 25.84 159.616 23.7C159.616 20.38 160.726 17.6 162.946 15.36C165.186 13.12 167.966 12 171.286 12C172.146 12 172.936 12.08 173.656 12.24C173.776 12.8 173.846 13.29 173.866 13.71C174.866 13.07 175.896 12.75 176.956 12.75C178.416 12.75 179.146 13.54 179.146 15.12C179.146 15.68 178.826 17.37 178.186 20.19C177.566 23.01 177.256 25.1 177.256 26.46C177.256 27.82 177.566 28.76 178.186 29.28C177.066 30.26 175.896 30.75 174.676 30.75C173.476 30.75 172.596 30.39 172.036 29.67C171.496 28.95 171.226 27.83 171.226 26.31ZM165.256 22.23C165.256 23.21 165.456 23.97 165.856 24.51C166.276 25.03 166.866 25.29 167.626 25.29C168.386 25.29 169.136 25.01 169.876 24.45C170.616 23.89 171.236 23.12 171.736 22.14C171.916 20.12 172.306 17.73 172.906 14.97C170.886 14.97 169.106 15.7 167.566 17.16C166.026 18.62 165.256 20.31 165.256 22.23ZM184.976 11.34L183.296 8.94C185.796 7.48 187.766 6.75 189.206 6.75C190.026 6.75 190.606 6.92 190.946 7.26C191.286 7.58 191.456 8.2 191.456 9.12C191.456 10.02 191.006 12.58 190.106 16.8C189.226 21.02 188.786 23.98 188.786 25.68C188.786 27.38 189.096 28.58 189.716 29.28C188.316 30.26 187.046 30.75 185.906 30.75C184.766 30.75 183.926 30.38 183.386 29.64C182.866 28.88 182.606 27.84 182.606 26.52C182.606 25.2 182.976 22.5 183.716 18.42C184.456 14.34 184.876 11.98 184.976 11.34ZM196.369 11.34L194.689 8.94C197.189 7.48 199.159 6.75 200.599 6.75C201.419 6.75 201.999 6.92 202.339 7.26C202.679 7.58 202.849 8.13 202.849 8.91C202.849 9.67 202.719 10.74 202.459 12.12C202.219 13.5 201.889 15.13 201.469 17.01C201.069 18.89 200.779 20.4 200.599 21.54L202.489 19.86C202.669 19.7 202.959 19.45 203.359 19.11C203.779 18.75 204.069 18.49 204.229 18.33C204.409 18.17 204.649 17.95 204.949 17.67C205.249 17.37 205.469 17.12 205.609 16.92C205.749 16.72 205.909 16.49 206.089 16.23C206.369 15.79 206.509 15.3 206.509 14.76C206.509 14.2 206.429 13.71 206.269 13.29C207.689 12.43 209.029 12 210.289 12C211.129 12 211.799 12.27 212.299 12.81C212.799 13.33 213.049 14.09 213.049 15.09C213.049 16.09 212.589 17.1 211.669 18.12C210.769 19.12 209.649 20 208.309 20.76C208.929 22.82 209.729 24.71 210.709 26.43C211.689 28.15 212.509 29.18 213.169 29.52C212.369 30.34 211.129 30.75 209.449 30.75C208.209 30.75 207.159 30.33 206.299 29.49C205.459 28.65 204.709 27.27 204.049 25.35L203.299 23.22L200.209 24.75C200.189 24.97 200.179 25.3 200.179 25.74C200.179 27.4 200.489 28.58 201.109 29.28C199.709 30.26 198.439 30.75 197.299 30.75C196.159 30.75 195.319 30.38 194.779 29.64C194.259 28.88 193.999 27.84 193.999 26.52C193.999 25.2 194.369 22.5 195.109 18.42C195.849 14.34 196.269 11.98 196.369 11.34Z" fill="#51CBB6"/>
</svg>
